<?xml version="1.0" encoding="UTF-8"?>
<svg version="1.1" xmlns="http://www.w3.org/2000/svg" width="217" height="237">
<path d="M0 0 C0 0.99 0 1.98 0 3 C1.98 2.67 3.96 2.34 6 2 C6 2.99 6 3.98 6 5 C7.1446875 4.505 7.1446875 4.505 8.3125 4 C11 3 11 3 14 3 C13.62875 4.670625 13.62875 4.670625 13.25 6.375 C13.10859508 8.66562481 13.10859508 8.66562481 14 11 C16.31641378 13.23184629 18.74245404 15.15415329 21.31835938 17.07568359 C25.00646304 19.91276917 26.93577036 22.24076551 28.75 26.5 C31.66030405 32.60225042 35.90136376 34.77940571 41.54833984 38.02612305 C65.72326541 52.18462069 80.86815495 77.41418899 88.10546875 103.86328125 C94.37423996 131.73429689 89.67851542 162.41186967 74.61206055 186.71020508 C58.49317817 211.46168181 34.55425094 228.63584568 5.78125 235.45703125 C-24.51418497 241.37144903 -54.2384092 235.69277304 -80 219 C-83.87493033 216.20608123 -87.46162194 213.20745061 -91 210 C-91.73065674 209.34306152 -91.73065674 209.34306152 -92.47607422 208.67285156 C-105.07118708 197.20656507 -113.51835554 183.66686254 -120 168 C-120.39960937 167.0409375 -120.79921875 166.081875 -121.2109375 165.09375 C-130.72587462 139.6251965 -128.84074687 109.68947013 -118 85 C-109.62147395 66.6444724 -96.92139754 51.12689537 -80.5625 39.3125 C-79.99571533 38.90241699 -79.42893066 38.49233398 -78.8449707 38.06982422 C-76.15401324 36.20804559 -73.76989266 34.92401356 -70.65234375 33.89453125 C-69.33943359 33.45173828 -69.33943359 33.45173828 -68 33 C-66.92414941 30.27564363 -66.92414941 30.27564363 -66 27 C-60.21597078 17.00189235 -50.9062999 10.35167419 -40 7 C-35.50361629 6.09521889 -30.98802041 5.49969726 -26.4375 4.9375 C-15.96035292 3.62292877 -15.96035292 3.62292877 -5.88696289 0.58813477 C-4 0 -4 0 0 0 Z " fill="#FE7E50" transform="translate(127,0)"/>
<path d="M0 0 C1.21719727 0.06586304 1.21719727 0.06586304 2.45898438 0.13305664 C4.42382812 2.32446289 4.42382812 2.32446289 6.45898438 5.13305664 C9.18017718 7.27671789 11.93418222 9.3088377 14.76953125 11.29516602 C22.2003969 16.73761087 23.15290677 23.43015572 24.64648438 32.00805664 C24.82373047 32.98258789 25.00097656 33.95711914 25.18359375 34.96118164 C25.61694264 37.35045659 26.0418095 39.74091409 26.45898438 42.13305664 C27.6105603 42.32254883 27.6105603 42.32254883 28.78540039 42.51586914 C32.76596698 43.434769 34.09112612 44.80390619 36.45898438 48.13305664 C37.16400376 51.81691458 37.11203272 55.39365491 37.02148438 59.13305664 C37.03244141 60.11790039 37.04339844 61.10274414 37.0546875 62.11743164 C37.01018379 66.50846405 36.91355089 69.35323137 34.67382812 73.19555664 C32.45898438 75.13305664 32.45898438 75.13305664 30.32617188 76.03930664 C28.1373984 77.05447882 28.1373984 77.05447882 27.40429688 80.03930664 C26.99824219 81.81821289 26.99824219 81.81821289 26.58398438 83.63305664 C23.02592793 97.13436383 15.08320663 107.58891376 3.34179688 115.13696289 C1.45898438 116.13305664 1.45898438 116.13305664 -0.54101562 116.13305664 C-0.54512451 116.8380127 -0.5492334 117.54296875 -0.5534668 118.26928711 C-0.58670863 121.51634985 -0.65738565 124.76161146 -0.72851562 128.00805664 C-0.7372168 129.67094727 -0.7372168 129.67094727 -0.74609375 131.36743164 C-0.94413145 138.84885602 -2.07334037 144.96984921 -6.54101562 151.13305664 C-12.74591862 156.24686913 -18.50741013 157.54801763 -26.45898438 157.48071289 C-32.30845057 156.82088717 -35.85483944 153.86480516 -39.85351562 149.75805664 C-45.06045682 141.65837034 -44.92408151 134.92139678 -44.54101562 125.49438477 C-44.54891257 122.47183037 -44.64668419 120.0248029 -45.54101562 117.13305664 C-47.69552853 115.06677416 -49.74971994 113.78012133 -52.40771484 112.43408203 C-54.87490442 110.92942957 -55.39067233 109.71643183 -56.54101562 107.13305664 C-57.46914062 106.9280957 -57.46914062 106.9280957 -58.41601562 106.71899414 C-63.39812312 105.34525126 -66.13205591 98.3623391 -68.54101562 94.13305664 C-71.21733069 88.28481261 -72.97161972 82.53876062 -73.54101562 76.13305664 C-74.28351563 76.09180664 -75.02601562 76.05055664 -75.79101562 76.00805664 C-79.81688186 74.7270992 -80.59833339 72.84255725 -82.54101562 69.13305664 C-83.07864954 65.92724485 -83.05627049 62.81368692 -82.97851562 59.57055664 C-82.98560547 58.73331055 -82.99269531 57.89606445 -83 57.03344727 C-82.93813253 51.02278478 -81.89193152 47.48397254 -77.54101562 43.13305664 C-74.91601562 43.00805664 -74.91601562 43.00805664 -72.54101562 43.13305664 C-72.30318359 41.35801758 -72.30318359 41.35801758 -72.06054688 39.54711914 C-69.0708887 18.70770243 -69.0708887 18.70770243 -61.16601562 12.00805664 C-60.5949559 11.58814453 -60.02389618 11.16823242 -59.43553162 10.7355957 C-57.39105757 9.00620966 -56.06102875 7.17474755 -54.48657227 5.01586914 C-51.65207949 1.74337662 -49.85131909 0.55790567 -45.52709961 0.13305664 C-43.61419451 0.09273234 -41.7000587 0.09488773 -39.78710938 0.13305664 C-38.76802994 0.12218018 -37.7489505 0.11130371 -36.69898987 0.10009766 C-33.4577464 0.0740288 -30.21967213 0.10269113 -26.97851562 0.13305664 C-24.79685855 0.12495903 -22.61521166 0.11327657 -20.43359375 0.09790039 C-15.5704945 0.07107143 -10.70897745 0.07346521 -5.84605408 0.12550354 C-3.89693085 0.13189039 -1.94775912 0.07318869 0 0 Z " fill="#FDD9B3" transform="translate(131.541015625,30.866943359375)"/>
<path d="M0 0 C0.00410889 0.58378418 0.00821777 1.16756836 0.01245117 1.76904297 C-0.27065203 17.28571455 -0.27065203 17.28571455 6 31 C10.44032542 35.3320248 14.42429868 37.29843414 20.625 37.4375 C27.03803991 37.28872374 31.92888618 36.02159759 37 32 C44.61704242 23.97928943 42.93109774 10.29751086 43 0 C52.30298817 -0.21634856 60.69936374 2.0144899 68 8 C71.87962835 12.77492719 71.87962835 12.77492719 72.2421875 16.46484375 C72.79659722 19.23672736 72.79659722 19.23672736 75.51171875 20.87890625 C76.55972656 21.43449219 77.60773438 21.99007812 78.6875 22.5625 C79.77546875 23.15933594 80.8634375 23.75617188 81.984375 24.37109375 C82.97953125 24.90863281 83.9746875 25.44617188 85 26 C90.88460051 29.4954527 95.88098708 33.25768616 98 40 C98.66 40 99.32 40 100 40 C100.99 42.97 100.99 42.97 102 46 C102.66 46 103.32 46 104 46 C104.40058872 49.32252999 104.27314782 50.63499716 102.234375 53.359375 C87.17734283 67.84821728 70.96553128 78.06664255 51 84 C49.87980469 84.34160156 48.75960937 84.68320313 47.60546875 85.03515625 C19.59051932 92.04704697 -10.3494839 86.50501131 -35.00610352 72.16625977 C-45.31059446 65.9155623 -53.68116093 57.60846983 -62 49 C-60.68 46.69 -59.36 44.38 -58 42 C-57.34 42 -56.68 42 -56 42 C-55.67 40.68 -55.34 39.36 -55 38 C-54.34 38 -53.68 38 -53 38 C-52.79375 37.443125 -52.5875 36.88625 -52.375 36.3125 C-51.03153247 34.05303189 -49.94842298 33.0001344 -47.9375 31.375 C-44.99175287 29.32880603 -44.99175287 29.32880603 -44 27 C-42.61575496 26.13341684 -41.19211561 25.32892237 -39.75 24.5625 C-38.93660156 24.11519531 -38.12320313 23.66789062 -37.28515625 23.20703125 C-35.61723685 22.32602767 -33.91122145 21.51609842 -32.1875 20.75 C-29.72183637 18.77746909 -29.27616692 17.5726422 -28.125 14.6875 C-26.05862879 9.69579543 -23.72798105 6.69118645 -19 4 C-12.6796215 1.47027244 -6.84517326 -0.26763083 0 0 Z " fill="#2B3448" transform="translate(87,150)"/>
<path d="M0 0 C20.63439496 7.55099236 38.69544612 28.65279061 48 48 C60.51306737 76.69124399 61.96743336 107.53192699 50.97265625 136.97924805 C46.73747488 147.66017421 40.94747443 157.64496278 33 166 C32.67 165.01 32.34 164.02 32 163 C31.34 163 30.68 163 30 163 C29.34 161.02 28.68 159.04 28 157 C27.34 157 26.68 157 26 157 C25.773125 156.4225 25.54625 155.845 25.3125 155.25 C23.65948561 152.41626105 21.60357787 150.96855887 19 149 C18.58621094 148.54882812 18.17242187 148.09765625 17.74609375 147.6328125 C15.26434403 145.31207115 12.40243526 143.67188205 9.5 141.9375 C-0.24282959 136.05075707 -0.24282959 136.05075707 -1.375 131.625 C-2.74499897 127.27855657 -3.92791552 125.33928257 -8 123 C-14.47134712 119.90250467 -20.93420027 118.14255485 -28 117 C-28 116.01 -28 115.02 -28 114 C-25.875 112.4921875 -25.875 112.4921875 -23 110.875 C-11.71256995 103.96906593 -5.27710084 94.45111223 -2.125 81.75 C-0.20374064 74.41284492 -0.20374064 74.41284492 3.6875 71.75 C4.780625 71.1725 5.87375 70.595 7 70 C8.30475618 67.39048764 8.11301572 65.47298715 8.09765625 62.5546875 C8.09443359 61.47832031 8.09121094 60.40195313 8.08789062 59.29296875 C8.07951172 58.16503906 8.07113281 57.03710938 8.0625 55.875 C8.05798828 54.73933594 8.05347656 53.60367188 8.04882812 52.43359375 C8.03701615 49.62234362 8.02054507 46.8111977 8 44 C7.401875 43.71125 6.80375 43.4225 6.1875 43.125 C4 42 4 42 1 40 C0.67529297 37.17773438 0.67529297 37.17773438 0.7421875 33.59375 C0.75636719 32.29179688 0.77054688 30.98984375 0.78515625 29.6484375 C0.81422379 28.26560621 0.84417753 26.88279328 0.875 25.5 C1.02481623 16.93379546 1.15564167 8.50673647 0 0 Z " fill="#FE7E50" transform="translate(159,33)"/>
<path d="M0 0 C0 0.99 0 1.98 0 3 C2.97 2.505 2.97 2.505 6 2 C6 2.99 6 3.98 6 5 C7.1446875 4.505 7.1446875 4.505 8.3125 4 C11 3 11 3 14 3 C13.62875 4.670625 13.62875 4.670625 13.25 6.375 C13.10859508 8.66562481 13.10859508 8.66562481 14 11 C16.30949422 13.22517935 18.73857905 15.13785686 21.28759766 17.07788086 C29.92800672 23.82987853 32.68442881 32.40091571 34 43 C34.23247263 47.08907474 34.23661219 51.15559435 34.1875 55.25 C34.1865332 56.80460937 34.1865332 56.80460937 34.18554688 58.390625 C34.15510323 63.69458466 33.92251904 68.77485214 33 74 C31.515 73.505 31.515 73.505 30 73 C29.27978516 70.76269531 29.27978516 70.76269531 28.7890625 67.828125 C28.59570312 66.77109375 28.40234375 65.7140625 28.203125 64.625 C27.82053029 62.39147412 27.44285006 60.15710034 27.0703125 57.921875 C25.94125861 51.80121444 25.21202175 47.90135157 20 44 C19.15179688 43.30777344 18.30359375 42.61554687 17.4296875 41.90234375 C15.72203128 40.5889629 14.01369391 39.27646721 12.3046875 37.96484375 C10 36 10 36 8.67437744 33.90777588 C7.1522581 31.79048237 7.1522581 31.79048237 4.67425537 31.50311279 C3.76049133 31.50563049 2.84672729 31.50814819 1.90527344 31.51074219 C0.86699402 31.50524353 -0.1712854 31.49974487 -1.24102783 31.49407959 C-2.3628949 31.51150208 -3.48476196 31.52892456 -4.640625 31.546875 C-5.79616882 31.55575745 -6.95171265 31.56463989 -8.14227295 31.5737915 C-10.5902688 31.60050022 -13.03816533 31.63821773 -15.48583984 31.68603516 C-19.22204035 31.74952488 -22.95474543 31.74954677 -26.69140625 31.74609375 C-29.0703712 31.77995474 -31.44928598 31.81759313 -33.828125 31.859375 C-34.94189514 31.85250671 -36.05566528 31.84563843 -37.20318604 31.83856201 C-43.13243865 31.97305844 -43.13243865 31.97305844 -48.18249512 34.76208496 C-50.04505703 36.8470933 -50.04505703 36.8470933 -51.54266357 39.02764893 C-53.05516407 41.07465874 -54.53140111 42.26690934 -56.625 43.6875 C-63.8909128 49.71249286 -65.46532224 60.76318294 -66.640625 69.63671875 C-67 72 -67 72 -68 74 C-68.99 73.67 -69.98 73.34 -71 73 C-74.62536639 57.91379792 -72.38937107 38.21336792 -64.85546875 24.65234375 C-57.64547186 14.34584293 -47.67560584 8.63303221 -35.5 6.375 C-32.6712166 5.88589379 -29.83682814 5.43971764 -27 5 C-24.56700717 4.61240419 -22.1347078 4.22105503 -19.703125 3.82470703 C-18.14567123 3.57244787 -16.58709673 3.3269845 -15.02734375 3.08935547 C-9.79399509 2.25924624 -5.25089178 0 0 0 Z " fill="#4A312E" transform="translate(127,0)"/>
<path d="M0 0 C0.556875 0.7734375 0.556875 0.7734375 1.125 1.5625 C1.74375 2.366875 2.3625 3.17125 3 4 C3.36738281 4.52078125 3.73476563 5.0415625 4.11328125 5.578125 C9.46660622 12.58955947 17.2555281 16.12776405 25 20 C25 32.87 25 45.74 25 59 C4.29216707 52.78765012 -10.31613351 41.39821676 -25 26 C-23.68 23.69 -22.36 21.38 -21 19 C-20.34 19 -19.68 19 -19 19 C-18.67 17.68 -18.34 16.36 -18 15 C-17.34 15 -16.68 15 -16 15 C-15.79375 14.443125 -15.5875 13.88625 -15.375 13.3125 C-14.03153247 11.05303189 -12.94842298 10.0001344 -10.9375 8.375 C-7.99175287 6.32880603 -7.99175287 6.32880603 -7 4 C-4.7427974 2.51685009 -2.3738217 1.29481183 0 0 Z " fill="#2B3349" transform="translate(50,173)"/>
<path d="M0 0 C0.60078369 0.21221191 1.20156738 0.42442383 1.82055664 0.64306641 C8.15813148 2.73334565 13.78420729 3.47808523 20.4375 3.375 C21.80684692 3.36629883 21.80684692 3.36629883 23.20385742 3.35742188 C29.79035554 3.23072461 35.82581346 2.42918815 42 0 C43.03208475 19.77015679 43.03208475 19.77015679 37 27 C30.8361012 32.14457701 25.00062833 33.41468186 17.08203125 33.34765625 C11.16189221 32.67985856 7.57174908 29.69583454 3.625 25.4375 C1.10117932 21.65176898 -0.25755198 19.0588463 -0.1953125 14.453125 C-0.18886719 13.60878906 -0.18242188 12.76445312 -0.17578125 11.89453125 C-0.15902344 11.02183594 -0.14226562 10.14914063 -0.125 9.25 C-0.11597656 8.36183594 -0.10695313 7.47367188 -0.09765625 6.55859375 C-0.07414577 4.37211942 -0.04128499 2.18619906 0 0 Z " fill="#FDDAB3" transform="translate(88,155)"/>
<path d="M0 0 C10 3 10 3 12 4 C23.48767504 5.09514325 34.27443169 4.38417391 45 0 C44.82677165 5.28346457 44.82677165 5.28346457 44 8 C37.63305423 12.4858027 30.23809881 12.20799103 22.75 12.25 C21.84636719 12.270625 20.94273438 12.29125 20.01171875 12.3125 C13.71644621 12.34873178 8.87261388 11.27713599 3 9 C2.67 13.95 2.34 18.9 2 24 C1.67 24 1.34 24 1 24 C0.67 16.08 0.34 8.16 0 0 Z " fill="#E3C4A2" transform="translate(86,147)"/>
<path d="M0 0 C4.75 0.875 4.75 0.875 7 2 C7 15.53 7 29.06 7 43 C1 42 1 42 0 41 C-0.08871273 37.97022196 -0.1151935 34.96332978 -0.09765625 31.93359375 C-0.0962413 31.02497086 -0.09482635 30.11634796 -0.09336853 29.18019104 C-0.08775193 26.26592779 -0.07519665 23.35174019 -0.0625 20.4375 C-0.05748714 18.46679798 -0.05292386 16.49609476 -0.04882812 14.52539062 C-0.03777711 9.68356441 -0.02050138 4.84179505 0 0 Z " fill="#F3F2F3" transform="translate(75,191)"/>
<path d="M0 0 C0.02467917 5.23274388 0.04285003 10.46545403 0.05493164 15.69824219 C0.05996711 17.47917267 0.06679581 19.260099 0.07543945 21.04101562 C0.08753942 23.59766665 0.09323609 26.15426312 0.09765625 28.7109375 C0.10281754 29.50994476 0.10797882 30.30895203 0.11329651 31.13217163 C0.11387171 36.77225659 0.11387171 36.77225659 -1 39 C-2.65 38.67 -4.3 38.34 -6 38 C-6 26.12 -6 14.24 -6 2 C-2 0 -2 0 0 0 Z " fill="#EEEFEF" transform="translate(142,191)"/>
<path d="M0 0 C0.66 0 1.32 0 2 0 C2.4323999 0.65121826 2.8647998 1.30243652 3.31030273 1.97338867 C4.82244314 4.21705606 4.82244314 4.21705606 7.32836914 4.4699707 C8.22160889 4.45538818 9.11484863 4.44080566 10.03515625 4.42578125 C11.00904297 4.41740234 11.98292969 4.40902344 12.98632812 4.40039062 C14.00146484 4.37138672 15.01660156 4.34238281 16.0625 4.3125 C17.08150391 4.30283203 18.10050781 4.29316406 19.15039062 4.28320312 C24.24031645 4.40206062 24.24031645 4.40206062 29 3 C29.33 2.01 29.66 1.02 30 0 C31.485 0.495 31.485 0.495 33 1 C32.48483718 5.43040026 31.37841589 8.25702378 29 12 C28.23816406 11.9278125 27.47632812 11.855625 26.69140625 11.78125 C15.00078825 10.13087457 15.00078825 10.13087457 4 13 C0.36827755 9.13397287 -0.69457852 6.29397231 -1 1 C-0.67 0.67 -0.34 0.34 0 0 Z " fill="#52453A" transform="translate(93,117)"/>
<path d="M0 0 C3.73487777 0.4979837 5.81237635 0.87491756 9 3 C6.04979615 12.1188119 -0.87996773 16.6302739 -9 21 C-10.98394819 21.71301755 -12.98097058 22.39339911 -15 23 C-15 21.68 -15 20.36 -15 19 C-13.4609375 17.61328125 -13.4609375 17.61328125 -11.375 16.3125 C-5.71474578 12.36138116 -1.35500447 6.8840457 0 0 Z " fill="#232B3D" transform="translate(158,170)"/>
<path d="M0 0 C0.78375 0.04125 1.5675 0.0825 2.375 0.125 C2.65472656 0.76566406 2.93445312 1.40632812 3.22265625 2.06640625 C6.80883659 9.80379212 11.29641797 15.31156422 18.375 20.125 C18.045 21.115 17.715 22.105 17.375 23.125 C8.30662248 19.07415116 0.00363658 14.56795488 -5.625 6.125 C-5.16085032 2.29576517 -4.11741711 0.19606748 0 0 Z " fill="#252C3D" transform="translate(56.625,169.875)"/>
<path d="M0 0 C1.31613281 -0.01417969 2.63226563 -0.02835937 3.98828125 -0.04296875 C7.40875367 0.17013354 9.64016341 0.69625018 12.6875 2.1875 C9.90574757 5.27833603 7.76251963 7.19138409 3.6875 8.1875 C-1.68716623 8.1875 -5.90712996 7.45600035 -10.3125 4.1875 C-9.9825 3.1975 -9.6525 2.2075 -9.3125 1.1875 C-6.32512272 -0.30618864 -3.27289093 0.00312001 0 0 Z " fill="#F0536B" transform="translate(108.3125,126.8125)"/>
<path d="M0 0 C2.31192776 1.36592938 3.68693453 2.78540278 4.95703125 5.15625 C4.62703125 5.81625 4.29703125 6.47625 3.95703125 7.15625 C3.43238281 6.95128906 2.90773437 6.74632813 2.3671875 6.53515625 C-5.97312636 3.63478088 -14.30205003 3.45031803 -23.04296875 3.15625 C-15.98881086 -4.15037249 -8.97754277 -4.28230319 0 0 Z " fill="#756553" transform="translate(145.04296875,66.84375)"/>
<path d="M0 0 C1.9266357 0.94802709 3.7963722 2.01000576 5.65234375 3.08984375 C5.65234375 3.74984375 5.65234375 4.40984375 5.65234375 5.08984375 C4.45738281 5.13882813 3.26242188 5.1878125 2.03125 5.23828125 C-9.77946125 5.77040914 -9.77946125 5.77040914 -21.34765625 8.08984375 C-17.71594235 -0.45107136 -8.36032451 -3.2411907 0 0 Z " fill="#746452" transform="translate(90.34765625,64.91015625)"/>
<path d="M0 0 C6.93 0 13.86 0 21 0 C20 4 20 4 18 5.75 C13.90899068 7.45458722 10.37311422 7.58625082 6 7 C3 5.75 3 5.75 1 4 C0.67 2.68 0.34 1.36 0 0 Z " fill="#D8B998" transform="translate(98,102)"/>
<path d="M0 0 C8.91 0 17.82 0 27 0 C26 3 26 3 24 4 C22.3325394 4.08426094 20.66174813 4.10725143 18.9921875 4.09765625 C18.00605469 4.09443359 17.01992187 4.09121094 16.00390625 4.08789062 C14.97136719 4.07951172 13.93882813 4.07113281 12.875 4.0625 C11.31458984 4.05573242 11.31458984 4.05573242 9.72265625 4.04882812 C7.14838038 4.03701952 4.57421854 4.02055075 2 4 C1.34 2.68 0.68 1.36 0 0 Z " fill="#F5F4F4" transform="translate(96,118)"/>
<path d="M0 0 C5 1 5 1 7 2 C7 15.53 7 29.06 7 43 C6.01 42.67 5.02 42.34 4 42 C4.66 42 5.32 42 6 42 C6 29.46 6 16.92 6 4 C4.35 3.67 2.7 3.34 1 3 C1 15.54 1 28.08 1 41 C0.67 41 0.34 41 0 41 C0 27.47 0 13.94 0 0 Z " fill="#AAACB5" transform="translate(75,191)"/>
<path d="M0 0 C3 2.5625 3 2.5625 5 5 C4.01 5.33 3.02 5.66 2 6 C1.34 5.67 0.68 5.34 0 5 C-1.7895469 4.90342128 -3.58285534 4.87019532 -5.375 4.875 C-6.33148438 4.87242188 -7.28796875 4.86984375 -8.2734375 4.8671875 C-10.68140854 4.98448122 -12.69990068 5.31324049 -15 6 C-14.00456145 3.375662 -13.02807645 2.02394756 -10.875 0.1875 C-7.05755417 -1.3892711 -3.85524663 -1.31358202 0 0 Z " fill="#7C6B57" transform="translate(140,81)"/>
<path d="M0 0 C2.9375 1.9375 2.9375 1.9375 5 4 C5 4.66 5 5.32 5 6 C4.4534375 5.83757812 3.906875 5.67515625 3.34375 5.5078125 C0.6706465 4.92864008 -1.7659306 4.86748882 -4.5 4.875 C-5.4384375 4.87242188 -6.376875 4.86984375 -7.34375 4.8671875 C-9.7214263 4.98607132 -11.72683096 5.32448278 -14 6 C-12.98949988 3.33595424 -12.02766415 2.02292172 -9.8125 0.1875 C-6.04656048 -1.40256335 -3.92336227 -1.05090061 0 0 Z " fill="#786855" transform="translate(87,81)"/>
<path d="M0 0 C1.98 0.66 3.96 1.32 6 2 C5.67 3.32 5.34 4.64 5 6 C5 5.34 5 4.68 5 4 C3.35 3.67 1.7 3.34 0 3 C0 2.01 0 1.02 0 0 Z " fill="#C0C1C3" transform="translate(76,191)"/>
</svg>
